<svg width="502" height="347" viewBox="0 0 502 347" fill="none" xmlns="http://www.w3.org/2000/svg">
<g filter="url(#filter0_d_58_5631)">
<g clip-path="url(#clip0_58_5631)">
<rect x="38.7178" y="18" width="446" height="278.057" rx="19.0124" transform="rotate(4.27305 38.7178 18)" fill="url(#paint0_linear_58_5631)"/>
<g clip-path="url(#clip1_58_5631)">
<path d="M92.1633 87.2221C90.8824 104.366 89.6137 121.346 88.3419 138.367C93.7607 138.772 99.0975 139.171 104.598 139.582C104.656 138.806 104.705 138.153 104.754 137.5C105.678 125.132 106.602 112.764 107.526 100.396C107.712 97.9065 107.845 97.7933 110.393 97.9426C116.427 98.3935 122.421 98.8413 128.456 99.2922C129.03 99.3352 129.649 99.3403 130.309 99.3486C130.404 98.0832 130.483 97.022 130.565 95.9199C130.768 92.6514 128.816 90.0428 125.576 89.7597C114.54 88.853 103.453 88.0656 92.1633 87.2221Z" fill="#FEFDFD"/>
<path d="M67.6133 112.474C67.2961 116.719 66.985 120.882 66.677 125.005C73.4505 125.511 80.0188 126.002 86.6692 126.498C86.9864 122.253 87.2944 118.131 87.6055 113.967C80.914 113.467 74.3047 112.974 67.6133 112.474Z" fill="#FEFDFD"/>
<path d="M67.7667 109.86C74.5813 110.369 81.1496 110.86 87.841 111.36C88.1582 107.115 88.4662 102.992 88.7803 98.788C82.0479 98.285 75.4385 97.7911 68.7061 97.2881C68.3889 101.533 68.0839 105.615 67.7667 109.86Z" fill="#FEFDFD"/>
<path d="M110.087 100.38C109.773 104.584 109.462 108.748 109.148 112.952C115.839 113.452 122.489 113.949 129.058 114.439C129.378 110.154 129.683 106.072 129.997 101.868C123.306 101.368 116.778 100.88 110.087 100.38Z" fill="#FEFDFD"/>
<path d="M108.914 115.522C108.591 119.849 108.283 123.972 107.975 128.094C114.666 128.594 121.275 129.088 127.885 129.582C128.202 125.337 128.513 121.174 128.824 117.01C122.174 116.513 115.647 116.025 108.914 115.522Z" fill="#FEFDFD"/>
<path d="M89.6498 87.158C89.3275 87.0519 89.1663 86.9988 89.0432 86.9896C85.0201 86.689 80.9818 86.5925 76.977 86.047C71.4214 85.2625 68.1152 88.6275 69.1037 94.735C75.672 95.2258 82.2813 95.7196 88.9727 96.2196C89.2015 93.1583 89.4211 90.2194 89.6498 87.158Z" fill="#FEFDFD"/>
<path d="M86.5148 129.117C79.7824 128.613 73.132 128.117 66.3174 127.607C66.2503 128.505 66.1893 129.322 66.1283 130.138C65.7959 134.587 67.927 137.004 72.4458 137.301C76.0583 137.571 79.6709 137.84 83.2834 138.11C84.1455 138.175 84.9726 138.154 85.8378 138.178C86.0757 134.994 86.2922 132.096 86.5148 129.117Z" fill="#FEFDFD"/>
<path d="M106.973 139.839C112.187 140.228 117.145 140.722 122.124 140.93C124.593 141.032 126.919 139.194 127.368 137.053C127.692 135.476 127.65 133.831 127.772 132.198C120.998 131.692 114.389 131.198 107.697 130.698C107.623 131.144 107.598 131.471 107.574 131.797C107.382 134.369 107.19 136.94 106.973 139.839Z" fill="#FEFDFD"/>
<path d="M92.1633 87.2221C103.453 88.0656 114.54 88.853 125.576 89.7597C128.816 90.0428 130.73 92.6075 130.565 95.9199C130.483 97.022 130.404 98.0832 130.309 99.3486C129.649 99.3403 129.03 99.3352 128.456 99.2922C122.421 98.8413 116.427 98.3935 110.393 97.9426C107.848 97.7524 107.715 97.8657 107.526 100.396C106.602 112.764 105.678 125.132 104.754 137.5C104.705 138.153 104.656 138.806 104.598 139.582C99.0975 139.171 93.8018 138.775 88.3419 138.367C89.6137 121.346 90.8793 104.406 92.1633 87.2221Z" fill="white"/>
<path d="M67.6133 112.474C74.2637 112.971 80.873 113.464 87.6055 113.967C87.2944 118.131 86.9864 122.253 86.6692 126.498C80.0188 126.002 73.4505 125.511 66.677 125.005C66.985 120.882 67.2961 116.719 67.6133 112.474Z" fill="white"/>
<path d="M67.7667 109.86C68.0839 105.615 68.3919 101.492 68.7061 97.2881C75.4385 97.7911 82.0479 98.285 88.7803 98.788C88.4662 102.992 88.1582 107.115 87.841 111.36C81.1496 110.86 74.5813 110.369 67.7667 109.86Z" fill="white"/>
<path d="M110.087 100.38C116.778 100.88 123.306 101.368 129.997 101.868C129.686 106.031 129.378 110.154 129.058 114.439C122.489 113.949 115.839 113.452 109.148 112.952C109.465 108.707 109.773 104.584 110.087 100.38Z" fill="white"/>
<path d="M108.914 115.522C115.605 116.022 122.133 116.51 128.824 117.01C128.513 121.174 128.202 125.337 127.885 129.582C121.234 129.085 114.666 128.594 107.975 128.094C108.283 123.972 108.591 119.849 108.914 115.522Z" fill="white"/>
<path d="M89.6498 87.158C89.4211 90.2194 89.2015 93.1583 88.9697 96.2604C82.2783 95.7605 75.6689 95.2666 69.1007 94.7759C68.1152 88.6275 71.4214 85.2625 76.977 86.047C80.9848 86.5517 85.0201 86.689 89.0432 86.9896C89.1663 86.9988 89.3275 87.0519 89.6498 87.158Z" fill="white"/>
<path d="M86.5148 129.117C86.2922 132.096 86.0757 134.994 85.8378 138.178C85.0137 138.158 84.1455 138.175 83.2834 138.11C79.6709 137.84 76.0583 137.571 72.4458 137.301C67.927 137.004 65.7959 134.587 66.1283 130.138C66.1893 129.322 66.2472 128.546 66.3174 127.607C73.132 128.117 79.7824 128.613 86.5148 129.117Z" fill="white"/>
<path d="M106.973 139.839C107.19 136.94 107.382 134.369 107.574 131.797C107.598 131.471 107.664 131.147 107.697 130.698C114.389 131.198 120.998 131.692 127.772 132.198C127.65 133.831 127.692 135.476 127.368 137.053C126.919 139.194 124.593 141.032 122.124 140.93C117.186 140.725 112.187 140.228 106.973 139.839Z" fill="white"/>
</g>
<path d="M70.2004 226.774L68.2902 226.631L69.0913 215.909L60.896 226.079L59.3555 225.964L60.4298 211.586L62.34 211.729L61.5374 222.471L69.7342 212.281L71.2747 212.396L70.2004 226.774ZM80.9601 220.101C82.471 220.889 83.164 222.118 83.0392 223.788C82.9471 225.021 82.4064 225.992 81.4169 226.703C80.4412 227.415 79.1933 227.714 77.6734 227.601C76.3315 227.5 75.2512 227.124 74.4325 226.47C73.6275 225.818 73.0854 224.965 72.8061 223.912L74.4978 223.109C74.8016 224.756 75.9051 225.651 77.8084 225.793C78.7943 225.867 79.5775 225.705 80.158 225.308C80.7521 224.912 81.0774 224.337 81.1336 223.584C81.1899 222.831 80.9742 222.216 80.4866 221.739C80.0001 221.248 79.3049 220.969 78.4012 220.901L76.7169 220.775L76.8474 219.029L78.0592 219.12C78.9219 219.184 79.6292 219.024 80.1813 218.638C80.748 218.24 81.0575 217.692 81.1097 216.993C81.1619 216.295 80.9573 215.715 80.4961 215.254C80.0349 214.792 79.3798 214.53 78.5308 214.467C76.9424 214.348 75.8285 214.974 75.1891 216.344L73.6561 215.3C74.6671 213.379 76.3365 212.506 78.6643 212.68C80.0473 212.783 81.1347 213.25 81.9263 214.08C82.7327 214.898 83.0914 215.902 83.0024 217.093C82.8991 218.476 82.2183 219.479 80.9601 220.101ZM87.7825 219.309L91.2743 219.57C92.5066 219.662 93.5293 220.166 94.3422 221.08C95.1425 221.98 95.4971 223.039 95.406 224.258C95.3139 225.49 94.8048 226.499 93.8787 227.283C92.9811 228.056 91.8955 228.395 90.622 228.3L85.2201 227.896L86.2944 213.518L94.921 214.163L94.786 215.97L88.0695 215.469L87.7825 219.309ZM87.2638 226.252L90.7555 226.513C91.4676 226.566 92.0885 226.364 92.6183 225.908C93.1617 225.453 93.4611 224.856 93.5164 224.117C93.5706 223.391 93.3628 222.763 92.893 222.232C92.4369 221.702 91.8528 221.41 91.1407 221.357L87.649 221.096L87.2638 226.252ZM108.642 229.646L106.608 229.494L105.678 226.182L99.2084 225.698L97.7967 228.836L95.7633 228.684L102.198 214.707L104.355 214.868L108.642 229.646ZM103.096 217.066L99.9992 223.961L105.155 224.346L103.096 217.066ZM119.316 222.946C119.962 223.325 120.455 223.823 120.795 224.44C121.134 225.058 121.276 225.743 121.219 226.496C121.134 227.646 120.657 228.582 119.791 229.302C118.925 230.022 117.91 230.339 116.746 230.252L110.543 229.788L111.617 215.41L117.368 215.84C118.505 215.925 119.429 216.373 120.139 217.183C120.863 217.995 121.184 218.955 121.101 220.064C121.005 221.351 120.41 222.312 119.316 222.946ZM117.235 217.627L113.394 217.34L113.066 221.736L116.907 222.023C117.509 222.068 118.032 221.893 118.474 221.499C118.917 221.106 119.161 220.601 119.207 219.984C119.252 219.382 119.078 218.853 118.685 218.396C118.307 217.927 117.824 217.671 117.235 217.627ZM112.587 228.144L116.88 228.465C117.523 228.513 118.081 228.327 118.553 227.908C119.025 227.489 119.285 226.951 119.334 226.293C119.383 225.65 119.198 225.085 118.779 224.6C118.389 224.116 117.872 223.85 117.228 223.802L112.935 223.481L112.587 228.144ZM125.986 221.648L129.293 221.895C130.607 221.993 131.676 222.52 132.5 223.477C133.323 224.433 133.687 225.562 133.589 226.863C133.491 228.177 132.964 229.246 132.007 230.07C131.065 230.881 129.93 231.237 128.602 231.137L123.385 230.748L124.459 216.37L126.37 216.513L125.986 221.648ZM125.429 229.103L128.736 229.35C129.53 229.41 130.207 229.192 130.767 228.697C131.328 228.202 131.638 227.543 131.7 226.722C131.759 225.927 131.549 225.237 131.07 224.65C130.604 224.065 129.967 223.742 129.159 223.682L125.852 223.434L125.429 229.103ZM133.804 217.068L144.176 217.843L144.041 219.651L139.79 219.333L138.85 231.903L136.961 231.762L137.9 219.192L133.669 218.876L133.804 217.068ZM147.584 226.153L147.243 230.713L153.919 231.211L153.784 233.019L145.198 232.377L146.272 218L154.755 218.634L154.62 220.441L148.047 219.95L147.717 224.366L153.777 224.819L153.643 226.606L147.584 226.153ZM162.932 233.971C160.741 233.807 158.994 232.954 157.691 231.411C156.388 229.881 155.814 228.062 155.972 225.953C156.129 223.845 156.967 222.131 158.483 220.812C160.001 219.48 161.856 218.896 164.046 219.059C165.347 219.156 166.529 219.561 167.591 220.274C168.653 220.987 169.452 221.9 169.988 223.014L168.253 223.856C167.901 223.031 167.332 222.355 166.545 221.828C165.773 221.288 164.894 220.981 163.908 220.908C162.238 220.783 160.842 221.216 159.722 222.206C158.602 223.183 157.982 224.479 157.862 226.095C157.742 227.697 158.163 229.064 159.125 230.196C160.086 231.342 161.401 231.977 163.072 232.102C164.058 232.176 164.972 232.01 165.815 231.605C166.672 231.187 167.335 230.603 167.805 229.853L169.398 230.922C168.715 231.945 167.796 232.737 166.638 233.298C165.496 233.846 164.26 234.07 162.932 233.971ZM174.125 225.244L177.432 225.491C178.746 225.59 179.815 226.117 180.639 227.074C181.462 228.03 181.825 229.159 181.728 230.46C181.63 231.774 181.103 232.843 180.146 233.667C179.204 234.478 178.069 234.833 176.741 234.734L171.524 234.344L172.598 219.967L174.508 220.109L174.125 225.244ZM173.568 232.7L176.875 232.947C177.669 233.007 178.346 232.789 178.906 232.294C179.466 231.798 179.777 231.14 179.839 230.318C179.898 229.524 179.688 228.834 179.208 228.247C178.743 227.662 178.106 227.339 177.298 227.278L173.991 227.031L173.568 232.7ZM188.962 228.418C189.117 226.337 189.968 224.631 191.513 223.301C193.059 221.957 194.873 221.363 196.954 221.518C199.036 221.674 200.741 222.531 202.07 224.09C203.414 225.636 204.009 227.45 203.853 229.531C203.699 231.599 202.841 233.304 201.281 234.647C199.735 235.991 197.921 236.585 195.84 236.43C193.759 236.274 192.053 235.417 190.724 233.858C189.396 232.286 188.808 230.472 188.962 228.418ZM201.943 229.388C202.062 227.8 201.627 226.432 200.639 225.284C199.679 224.124 198.405 223.485 196.816 223.367C195.241 223.249 193.88 223.691 192.731 224.693C191.596 225.696 190.969 226.985 190.852 228.56C190.735 230.121 191.163 231.488 192.135 232.662C193.124 233.81 194.405 234.443 195.98 234.561C197.568 234.679 198.923 234.244 200.043 233.253C201.193 232.238 201.826 230.949 201.943 229.388ZM204.899 222.38L215.271 223.155L215.136 224.963L210.885 224.645L209.945 237.215L208.056 237.074L208.995 224.504L204.764 224.188L204.899 222.38ZM233.244 224.498L232.305 237.068L233.846 237.183L233.505 241.743L231.595 241.6L231.8 238.848L222.311 238.139L222.105 240.891L220.195 240.749L220.536 236.189L221.789 236.283C222.763 235.226 223.334 233.575 223.501 231.33L224.063 223.812L233.244 224.498ZM223.945 236.444L230.395 236.926L231.201 226.142L225.84 225.742L225.409 231.513C225.247 233.677 224.759 235.32 223.945 236.444ZM235.677 231.909C235.832 229.827 236.682 228.122 238.228 226.791C239.774 225.447 241.588 224.853 243.669 225.008C245.75 225.164 247.456 226.021 248.785 227.58C250.129 229.126 250.723 230.94 250.568 233.021C250.413 235.089 249.556 236.794 247.996 238.137C246.45 239.481 244.636 240.076 242.555 239.92C240.473 239.765 238.768 238.907 237.439 237.349C236.11 235.776 235.523 233.963 235.677 231.909ZM248.658 232.879C248.776 231.29 248.341 229.922 247.353 228.774C246.393 227.615 245.119 226.976 243.531 226.857C241.956 226.739 240.594 227.182 239.445 228.183C238.31 229.186 237.684 230.475 237.566 232.05C237.45 233.611 237.877 234.979 238.85 236.153C239.838 237.301 241.12 237.933 242.694 238.051C244.283 238.17 245.637 237.734 246.758 236.744C247.908 235.728 248.541 234.44 248.658 232.879ZM250.457 240.242L250.586 238.517C251.548 238.726 252.28 238.506 252.784 237.855C253.3 237.205 253.625 235.997 253.757 234.23L254.366 226.076L263.855 226.785L262.781 241.163L260.871 241.02L261.81 228.45L256.141 228.026L255.667 234.373C255.572 235.647 255.368 236.712 255.056 237.57C254.758 238.429 254.366 239.061 253.882 239.465C253.411 239.871 252.895 240.135 252.335 240.259C251.79 240.369 251.164 240.364 250.457 240.242ZM267.151 227.031L275.223 227.635L275.088 229.442L268.926 228.982L267.987 241.552L266.076 241.409L267.151 227.031ZM275.045 234.85C275.201 232.769 276.051 231.063 277.596 229.733C279.142 228.389 280.956 227.794 283.037 227.95C285.119 228.105 286.824 228.963 288.153 230.522C289.498 232.068 290.092 233.882 289.936 235.963C289.782 238.031 288.925 239.736 287.365 241.079C285.818 242.423 284.005 243.017 281.923 242.862C279.842 242.706 278.137 241.849 276.807 240.29C275.479 238.718 274.892 236.904 275.045 234.85ZM288.026 235.82C288.145 234.232 287.71 232.864 286.722 231.716C285.762 230.556 284.488 229.917 282.899 229.799C281.325 229.681 279.963 230.123 278.814 231.125C277.679 232.128 277.052 233.417 276.935 234.991C276.818 236.552 277.246 237.92 278.219 239.094C279.207 240.242 280.488 240.875 282.063 240.993C283.651 241.111 285.006 240.675 286.126 239.685C287.276 238.67 287.909 237.381 288.026 235.82ZM300.674 236.497C301.32 236.875 301.813 237.374 302.153 237.991C302.492 238.608 302.634 239.294 302.577 240.047C302.491 241.197 302.015 242.132 301.149 242.852C300.283 243.573 299.268 243.889 298.104 243.802L291.901 243.339L292.975 228.961L298.726 229.391C299.863 229.476 300.786 229.923 301.497 230.734C302.221 231.545 302.542 232.505 302.459 233.615C302.363 234.902 301.768 235.862 300.674 236.497ZM298.593 231.178L294.752 230.891L294.423 235.286L298.264 235.573C298.867 235.618 299.389 235.444 299.832 235.05C300.274 234.656 300.519 234.151 300.565 233.535C300.61 232.932 300.436 232.403 300.043 231.947C299.665 231.478 299.182 231.222 298.593 231.178ZM293.945 241.694L298.237 242.015C298.881 242.063 299.439 241.878 299.911 241.459C300.383 241.04 300.643 240.501 300.692 239.844C300.74 239.2 300.555 238.636 300.137 238.15C299.746 237.667 299.229 237.401 298.586 237.353L294.293 237.032L293.945 241.694ZM62.7389 245.09L66.8034 237.132L68.7341 237.276L63.2932 247.899C62.0862 250.232 60.3513 251.245 58.0884 250.939L58.2204 249.172C58.9948 249.313 59.6397 249.251 60.1552 248.986C60.6853 248.709 61.1439 248.193 61.5308 247.437L61.6992 247.119L57.6017 236.444L59.5324 236.588L62.7389 245.09ZM80.1086 245.19L85.3308 252.974L83.1536 252.811L78.2263 245.503L77.7106 252.405L75.821 252.263L76.3366 245.362L70.378 251.857L68.2213 251.696L74.5218 244.772L69.501 237.333L71.6577 237.494L76.4026 244.479L76.8952 237.886L78.7849 238.027L78.2923 244.62L84.0225 238.418L86.1997 238.581L80.1086 245.19ZM89.8151 246.906L89.4744 251.466L96.1498 251.965L96.0147 253.772L87.4292 253.131L88.5035 238.753L96.9863 239.387L96.8512 241.194L90.2786 240.703L89.9486 245.119L96.0078 245.572L95.8743 247.359L89.8151 246.906ZM110.604 255.131C108.413 254.967 106.666 254.114 105.363 252.571C104.059 251.041 103.486 249.222 103.644 247.113C103.801 245.005 104.638 243.291 106.155 241.972C107.673 240.64 109.527 240.055 111.718 240.219C113.019 240.316 114.2 240.721 115.263 241.434C116.325 242.147 117.124 243.06 117.66 244.174L115.924 245.015C115.573 244.19 115.004 243.515 114.217 242.988C113.445 242.448 112.566 242.141 111.58 242.068C109.91 241.943 108.514 242.376 107.394 243.366C106.274 244.343 105.654 245.639 105.533 247.254C105.414 248.857 105.835 250.224 106.797 251.356C107.757 252.502 109.073 253.137 110.744 253.262C111.73 253.335 112.644 253.17 113.487 252.764C114.344 252.347 115.007 251.763 115.476 251.013L117.069 252.082C116.387 253.105 115.467 253.897 114.31 254.458C113.168 255.006 111.932 255.23 110.604 255.131ZM121.582 249.28L121.241 253.84L127.916 254.338L127.781 256.146L119.196 255.504L120.27 241.127L128.753 241.76L128.618 243.568L122.045 243.077L121.715 247.493L127.774 247.946L127.641 249.732L121.582 249.28ZM131.367 241.956L139.439 242.559L139.304 244.366L133.142 243.906L132.203 256.476L130.293 256.333L131.367 241.956ZM139.261 249.775C139.417 247.693 140.267 245.987 141.812 244.657C143.359 243.313 145.172 242.719 147.254 242.874C149.335 243.03 151.04 243.887 152.37 245.446C153.714 246.992 154.308 248.806 154.152 250.887C153.998 252.955 153.141 254.66 151.581 256.003C150.035 257.347 148.221 257.941 146.14 257.786C144.058 257.63 142.353 256.773 141.024 255.214C139.695 253.642 139.108 251.829 139.261 249.775ZM152.242 250.744C152.361 249.156 151.926 247.788 150.938 246.64C149.978 245.481 148.704 244.841 147.116 244.723C145.541 244.605 144.179 245.047 143.03 246.049C141.895 247.052 141.269 248.341 141.151 249.916C141.034 251.477 141.462 252.844 142.435 254.019C143.423 255.166 144.704 255.799 146.279 255.917C147.868 256.036 149.222 255.6 150.342 254.609C151.492 253.594 152.126 252.305 152.242 250.744ZM167.086 244.625L166.147 257.195L167.688 257.31L167.347 261.87L165.437 261.727L165.642 258.975L156.153 258.266L155.947 261.018L154.037 260.875L154.378 256.315L155.631 256.409C156.605 255.353 157.176 253.702 157.343 251.456L157.905 243.939L167.086 244.625ZM157.788 256.57L164.237 257.052L165.043 246.269L159.682 245.868L159.251 251.64C159.089 253.803 158.601 255.447 157.788 256.57ZM179.474 251.684L179.93 245.584L181.82 245.725L180.745 260.103L178.856 259.962L179.339 253.492L172.356 252.97L171.872 259.44L169.962 259.297L171.036 244.92L172.947 245.062L172.491 251.163L179.474 251.684ZM189.025 246.264L194.776 246.694L193.702 261.071L191.812 260.93L192.223 255.425L189.368 255.212L185.239 260.439L183.083 260.278L187.324 254.935C186.354 254.643 185.578 254.061 184.996 253.192C184.413 252.336 184.159 251.401 184.235 250.388C184.327 249.155 184.837 248.14 185.764 247.342C186.705 246.531 187.793 246.172 189.025 246.264ZM188.491 253.412L192.352 253.7L192.753 248.339L188.891 248.051C188.207 248 187.585 248.215 187.026 248.696C186.481 249.165 186.181 249.776 186.125 250.529C186.068 251.282 186.274 251.938 186.742 252.496C187.223 253.055 187.806 253.36 188.491 253.412ZM198.948 257.229L197.572 257.126L197.634 251.038L197.941 246.93L200.098 247.091L199.791 251.199L198.948 257.229ZM197.918 261.613C197.548 261.586 197.243 261.432 197.002 261.153C196.762 260.873 196.655 260.548 196.683 260.179C196.71 259.809 196.864 259.504 197.143 259.263C197.423 259.022 197.748 258.916 198.117 258.943C198.501 258.972 198.806 259.126 199.033 259.404C199.274 259.684 199.38 260.008 199.353 260.378C199.325 260.748 199.172 261.053 198.892 261.294C198.626 261.536 198.301 261.642 197.918 261.613Z" fill="white"/>
</g>
</g>
<defs>
<filter id="filter0_d_58_5631" x="-1.01243" y="-1.01243" width="503.502" height="348.54" filterUnits="userSpaceOnUse" color-interpolation-filters="sRGB">
<feFlood flood-opacity="0" result="BackgroundImageFix"/>
<feColorMatrix in="SourceAlpha" type="matrix" values="0 0 0 0 0 0 0 0 0 0 0 0 0 0 0 0 0 0 127 0" result="hardAlpha"/>
<feOffset/>
<feGaussianBlur stdDeviation="9.50622"/>
<feColorMatrix type="matrix" values="0 0 0 0 0.645833 0 0 0 0 0.645833 0 0 0 0 0.645833 0 0 0 0.35 0"/>
<feBlend mode="normal" in2="BackgroundImageFix" result="effect1_dropShadow_58_5631"/>
<feBlend mode="normal" in="SourceGraphic" in2="effect1_dropShadow_58_5631" result="shape"/>
</filter>
<linearGradient id="paint0_linear_58_5631" x1="262.114" y1="-40.2256" x2="135.364" y2="347.549" gradientUnits="userSpaceOnUse">
<stop stop-color="#C2D8CB"/>
<stop offset="1" stop-color="#54B268"/>
</linearGradient>
<clipPath id="clip0_58_5631">
<rect x="38.7178" y="18" width="446" height="278.057" rx="19.0124" transform="rotate(4.27305 38.7178 18)" fill="white"/>
</clipPath>
<clipPath id="clip1_58_5631">
<rect width="61.7904" height="51.492" fill="white" transform="translate(69.4268 85.4375) rotate(4.27305)"/>
</clipPath>
</defs>
</svg>
