<svg width="106" height="106" viewBox="0 0 106 106" fill="none" xmlns="http://www.w3.org/2000/svg">
<g filter="url(#filter0_d_58_5651)">
<ellipse cx="52.9319" cy="53.7698" rx="48.9319" ry="48.93" fill="#54B268"/>
</g>
<g filter="url(#filter1_f_58_5651)">
<path d="M97.2192 54.2101C97.2192 78.4067 78.0313 97.921 54.4852 97.921C30.939 97.921 11.7511 78.4067 11.7511 54.2101C11.7511 30.0134 30.939 10.4992 54.4852 10.4992C78.0313 10.4992 97.2192 30.0134 97.2192 54.2101Z" stroke="#067D3D" stroke-opacity="0.71" stroke-width="5.54518"/>
</g>
<g filter="url(#filter2_f_58_5651)">
<path d="M97.4494 47.1595C99.6961 71.2896 82.3681 92.6176 58.7678 94.815C35.1674 97.0124 14.1998 79.2501 11.9531 55.12C9.70633 30.9898 27.0343 9.66181 50.6347 7.46441C74.235 5.26701 95.2027 23.0294 97.4494 47.1595Z" stroke="#D6F0D7" stroke-opacity="0.31" stroke-width="0.889657"/>
</g>
<path d="M98.6291 53.7698C98.6291 79.0066 78.1698 99.4652 52.9319 99.4652C27.6939 99.4652 7.23469 79.0066 7.23469 53.7698C7.23469 28.5331 27.6939 8.07453 52.9319 8.07453C78.1698 8.07453 98.6291 28.5331 98.6291 53.7698Z" stroke="#54B268" stroke-width="6.46937"/>
<g filter="url(#filter3_d_58_5651)">
<path d="M47.3909 72C46.5305 72 45.7131 71.6093 45.1108 70.9257L32.9357 57.1064C31.6881 55.6903 31.6881 53.3464 32.9357 51.9302C34.1833 50.5141 36.2484 50.5141 37.496 51.9302L47.3909 63.1615L69.504 38.0621C70.7516 36.646 72.8167 36.646 74.0643 38.0621C75.3119 39.4782 75.3119 41.8221 74.0643 43.2382L49.6711 70.9257C49.0688 71.6093 48.2514 72 47.3909 72Z" fill="white"/>
</g>
<g filter="url(#filter4_f_58_5651)">
<path d="M46.3909 71C45.5305 71 44.7131 70.6093 44.1108 69.9257L31.9357 56.1064C30.6881 54.6903 30.6881 52.3464 31.9357 50.9302C33.1833 49.5141 35.2484 49.5141 36.496 50.9302L46.3909 62.1615L68.504 37.0621C69.7516 35.646 71.8167 35.646 73.0643 37.0621C74.3119 38.4782 74.3119 40.8221 73.0643 42.2382L48.6711 69.9257C48.0688 70.6093 47.2514 71 46.3909 71Z" fill="#CFFBE0" fill-opacity="0.46"/>
</g>
<defs>
<filter id="filter0_d_58_5651" x="0.303215" y="0.218863" width="105.257" height="105.254" filterUnits="userSpaceOnUse" color-interpolation-filters="sRGB">
<feFlood flood-opacity="0" result="BackgroundImageFix"/>
<feColorMatrix in="SourceAlpha" type="matrix" values="0 0 0 0 0 0 0 0 0 0 0 0 0 0 0 0 0 0 127 0" result="hardAlpha"/>
<feOffset dy="-0.924196"/>
<feGaussianBlur stdDeviation="1.84839"/>
<feComposite in2="hardAlpha" operator="out"/>
<feColorMatrix type="matrix" values="0 0 0 0 0.575 0 0 0 0 0.575 0 0 0 0 0.575 0 0 0 0.25 0"/>
<feBlend mode="normal" in2="BackgroundImageFix" result="effect1_dropShadow_58_5651"/>
<feBlend mode="normal" in="SourceGraphic" in2="effect1_dropShadow_58_5651" result="shape"/>
</filter>
<filter id="filter1_f_58_5651" x="5.97852" y="4.72656" width="97.0137" height="98.9668" filterUnits="userSpaceOnUse" color-interpolation-filters="sRGB">
<feFlood flood-opacity="0" result="BackgroundImageFix"/>
<feBlend mode="normal" in="SourceGraphic" in2="BackgroundImageFix" result="shape"/>
<feGaussianBlur stdDeviation="1.5" result="effect1_foregroundBlur_58_5651"/>
</filter>
<filter id="filter2_f_58_5651" x="8.76838" y="4.29182" width="91.8656" height="93.6957" filterUnits="userSpaceOnUse" color-interpolation-filters="sRGB">
<feFlood flood-opacity="0" result="BackgroundImageFix"/>
<feBlend mode="normal" in="SourceGraphic" in2="BackgroundImageFix" result="shape"/>
<feGaussianBlur stdDeviation="1.27206" result="effect1_foregroundBlur_58_5651"/>
</filter>
<filter id="filter3_d_58_5651" x="27.1" y="37" width="52.8" height="45.4452" filterUnits="userSpaceOnUse" color-interpolation-filters="sRGB">
<feFlood flood-opacity="0" result="BackgroundImageFix"/>
<feColorMatrix in="SourceAlpha" type="matrix" values="0 0 0 0 0 0 0 0 0 0 0 0 0 0 0 0 0 0 127 0" result="hardAlpha"/>
<feOffset dy="5.54518"/>
<feGaussianBlur stdDeviation="2.44999"/>
<feComposite in2="hardAlpha" operator="out"/>
<feColorMatrix type="matrix" values="0 0 0 0 0.316667 0 0 0 0 0.316667 0 0 0 0 0.316667 0 0 0 0.35 0"/>
<feBlend mode="normal" in2="BackgroundImageFix" result="effect1_dropShadow_58_5651"/>
<feBlend mode="normal" in="SourceGraphic" in2="effect1_dropShadow_58_5651" result="shape"/>
</filter>
<filter id="filter4_f_58_5651" x="21.6667" y="26.6667" width="61.6666" height="53.6666" filterUnits="userSpaceOnUse" color-interpolation-filters="sRGB">
<feFlood flood-opacity="0" result="BackgroundImageFix"/>
<feBlend mode="normal" in="SourceGraphic" in2="BackgroundImageFix" result="shape"/>
<feGaussianBlur stdDeviation="4.66665" result="effect1_foregroundBlur_58_5651"/>
</filter>
</defs>
</svg>
