<svg width="167" height="169" viewBox="0 0 167 169" fill="none" xmlns="http://www.w3.org/2000/svg">
<g filter="url(#filter0_d_1_1032)">
<ellipse cx="82.8907" cy="85.4835" rx="70.4019" ry="70.3992" transform="rotate(11.3611 82.8907 85.4835)" fill="#54B268"/>
</g>
<g filter="url(#filter1_f_1_1032)">
<path d="M146.428 98.9018C139.443 133.668 106.223 156.211 72.3272 149.401C38.431 142.59 16.4976 108.965 23.4831 74.1987C30.4686 39.4326 63.6879 16.889 97.5841 23.6997C131.48 30.5105 153.414 64.1357 146.428 98.9018Z" stroke="#067D3D" stroke-opacity="0.71" stroke-width="5.54518"/>
</g>
<g filter="url(#filter2_f_1_1032)">
<path d="M147.754 88.797C144.073 123.575 113.493 148.83 79.4688 145.229C45.4447 141.628 20.829 110.531 24.5099 75.753C28.1907 40.9754 58.7708 15.7197 92.7948 19.3208C126.819 22.9219 151.435 54.0195 147.754 88.797Z" stroke="#D6F0D7" stroke-opacity="0.31" stroke-width="0.889657"/>
</g>
<path d="M148.742 98.7149C141.435 135.082 106.029 158.639 69.6599 151.332C33.2912 144.024 9.73246 108.619 17.0396 72.2522C24.3468 35.8852 59.7528 12.3276 96.1215 19.6351C132.49 26.9426 156.049 62.3479 148.742 98.7149Z" stroke="#54B268" stroke-width="6.46937"/>
<g filter="url(#filter3_d_1_1032)">
<path d="M69.9065 109.634C68.6928 109.39 67.6505 108.607 66.9947 107.472L53.7375 84.528C52.3789 82.1769 53.0433 78.8706 55.2045 77.2266C57.3657 75.5827 60.2786 76.168 61.6371 78.5191L72.4116 97.1662L110.718 68.0289C112.879 66.3849 115.792 66.9702 117.15 69.3214C118.509 71.6725 117.844 74.9788 115.683 76.6227L73.4273 108.765C72.3839 109.558 71.1202 109.878 69.9065 109.634Z" fill="white"/>
</g>
<g filter="url(#filter4_f_1_1032)">
<path d="M68.7795 107.94C67.5658 107.696 66.5235 106.913 65.8677 105.778L52.6105 82.834C51.252 80.4829 51.9163 77.1766 54.0776 75.5327C56.2388 73.8887 59.1517 74.474 60.5102 76.8252L71.2846 95.4723L109.591 66.3349C111.752 64.691 114.665 65.2763 116.023 67.6274C117.382 69.9786 116.718 73.2848 114.556 74.9288L72.3003 107.071C71.257 107.864 69.9932 108.184 68.7795 107.94Z" fill="#CFFBE0" fill-opacity="0.46"/>
</g>
<defs>
<filter id="filter0_d_1_1032" x="8.7788" y="10.4496" width="148.224" height="148.219" filterUnits="userSpaceOnUse" color-interpolation-filters="sRGB">
<feFlood flood-opacity="0" result="BackgroundImageFix"/>
<feColorMatrix in="SourceAlpha" type="matrix" values="0 0 0 0 0 0 0 0 0 0 0 0 0 0 0 0 0 0 127 0" result="hardAlpha"/>
<feOffset dy="-0.924196"/>
<feGaussianBlur stdDeviation="1.84839"/>
<feComposite in2="hardAlpha" operator="out"/>
<feColorMatrix type="matrix" values="0 0 0 0 0.575 0 0 0 0 0.575 0 0 0 0 0.575 0 0 0 0.25 0"/>
<feBlend mode="normal" in2="BackgroundImageFix" result="effect1_dropShadow_1_1032"/>
<feBlend mode="normal" in="SourceGraphic" in2="effect1_dropShadow_1_1032" result="shape"/>
</filter>
<filter id="filter1_f_1_1032" x="16.4141" y="16.7123" width="137.083" height="139.676" filterUnits="userSpaceOnUse" color-interpolation-filters="sRGB">
<feFlood flood-opacity="0" result="BackgroundImageFix"/>
<feBlend mode="normal" in="SourceGraphic" in2="BackgroundImageFix" result="shape"/>
<feGaussianBlur stdDeviation="1.5" result="effect1_foregroundBlur_1_1032"/>
</filter>
<filter id="filter2_f_1_1032" x="21.1561" y="15.9898" width="129.952" height="132.57" filterUnits="userSpaceOnUse" color-interpolation-filters="sRGB">
<feFlood flood-opacity="0" result="BackgroundImageFix"/>
<feBlend mode="normal" in="SourceGraphic" in2="BackgroundImageFix" result="shape"/>
<feGaussianBlur stdDeviation="1.27206" result="effect1_foregroundBlur_1_1032"/>
</filter>
<filter id="filter3_d_1_1032" x="48.1322" y="67.095" width="74.6232" height="53.0639" filterUnits="userSpaceOnUse" color-interpolation-filters="sRGB">
<feFlood flood-opacity="0" result="BackgroundImageFix"/>
<feColorMatrix in="SourceAlpha" type="matrix" values="0 0 0 0 0 0 0 0 0 0 0 0 0 0 0 0 0 0 127 0" result="hardAlpha"/>
<feOffset dy="5.54518"/>
<feGaussianBlur stdDeviation="2.44999"/>
<feComposite in2="hardAlpha" operator="out"/>
<feColorMatrix type="matrix" values="0 0 0 0 0.316667 0 0 0 0 0.316667 0 0 0 0 0.316667 0 0 0 0.35 0"/>
<feBlend mode="normal" in2="BackgroundImageFix" result="effect1_dropShadow_1_1032"/>
<feBlend mode="normal" in="SourceGraphic" in2="effect1_dropShadow_1_1032" result="shape"/>
</filter>
<filter id="filter4_f_1_1032" x="42.572" y="56.0677" width="83.4898" height="61.2854" filterUnits="userSpaceOnUse" color-interpolation-filters="sRGB">
<feFlood flood-opacity="0" result="BackgroundImageFix"/>
<feBlend mode="normal" in="SourceGraphic" in2="BackgroundImageFix" result="shape"/>
<feGaussianBlur stdDeviation="4.66665" result="effect1_foregroundBlur_1_1032"/>
</filter>
</defs>
</svg>
