<svg width="195" height="54" viewBox="0 0 195 54" fill="none" xmlns="http://www.w3.org/2000/svg">
<g clip-path="url(#clip0_264_868)">
<path d="M25.7487 2.12138L1.70711 26.163C1.31658 26.5535 1.31658 27.1867 1.70711 27.5772L25.7487 51.6189C26.1393 52.0094 26.7724 52.0094 27.163 51.6189L51.2046 27.5772C51.5951 27.1867 51.5951 26.5535 51.2046 26.163L27.163 2.12138C26.7724 1.73086 26.1393 1.73086 25.7487 2.12138Z" stroke="#333333" stroke-width="3"/>
<path d="M8.89941 26.8702L25.87 9.89966" stroke="#333333" stroke-width="2" stroke-linecap="round"/>
<path d="M20.2139 21.2141L28.6991 12.7288" stroke="#333333" stroke-width="2" stroke-linecap="round"/>
<path d="M24.042 42.0128L33.5273 32.5275" stroke="#333333" stroke-width="2" stroke-linecap="round"/>
<path d="M26.8701 44.8409L44.8407 26.8704" stroke="#333333" stroke-width="2" stroke-linecap="round"/>
<path d="M194 27H161V46H194V27Z" fill="#FEDD2C"/>
<path d="M171.135 30.7786C171.668 30.7786 172.141 30.8365 172.553 30.9524C172.965 31.0626 173.325 31.2133 173.632 31.4047C173.945 31.5961 174.209 31.8193 174.423 32.0745C174.637 32.3238 174.81 32.5905 174.942 32.8746C175.074 33.1529 175.17 33.4399 175.231 33.7357C175.291 34.0256 175.321 34.3039 175.321 34.5706C175.321 34.8374 175.291 35.1156 175.231 35.4056C175.17 35.6897 175.074 35.9709 174.942 36.2493C174.81 36.5275 174.637 36.7914 174.423 37.0408C174.209 37.2901 173.945 37.5104 173.632 37.7017C173.325 37.8873 172.965 38.0351 172.553 38.1453C172.141 38.2555 171.668 38.3106 171.135 38.3106H168.878V42.8332H165.434V30.7786H171.135ZM168.878 33.092V35.997H169.619C170.026 35.997 170.366 35.9796 170.641 35.9449C170.921 35.9042 171.146 35.8317 171.317 35.7274C171.493 35.623 171.619 35.481 171.696 35.3012C171.773 35.1156 171.811 34.8779 171.811 34.5881C171.811 34.2981 171.773 34.0574 171.696 33.8662C171.619 33.6748 171.493 33.5211 171.317 33.4052C171.146 33.2892 170.921 33.208 170.641 33.1616C170.361 33.1152 170.015 33.092 169.603 33.092H168.878Z" fill="#333333"/>
<path d="M185.217 42.9899H181.88V41.5113C180.864 41.4649 180.001 41.3083 179.293 41.0416C178.584 40.7691 178.007 40.4182 177.563 39.9891C177.118 39.5601 176.793 39.0672 176.59 38.5106C176.392 37.9539 176.294 37.3655 176.294 36.745C176.294 36.0782 176.403 35.4636 176.623 34.9012C176.843 34.333 177.181 33.84 177.637 33.4225C178.093 32.9993 178.672 32.6601 179.375 32.405C180.078 32.1499 180.913 31.9991 181.88 31.9527V30.6133H185.217V31.9527C186.184 31.9991 187.019 32.1499 187.722 32.405C188.425 32.6601 189.005 32.9993 189.461 33.4225C189.917 33.84 190.254 34.333 190.474 34.9012C190.694 35.4636 190.804 36.0782 190.804 36.745C190.804 37.3655 190.702 37.9539 190.499 38.5106C190.296 39.0672 189.972 39.5601 189.527 39.9891C189.082 40.4182 188.505 40.7691 187.796 41.0416C187.088 41.3083 186.228 41.4649 185.217 41.5113V42.9899ZM179.532 36.745C179.532 37.0697 179.576 37.3771 179.664 37.6669C179.757 37.9511 179.9 38.2004 180.092 38.4149C180.284 38.6295 180.526 38.8005 180.817 38.9281C181.114 39.0498 181.468 39.1107 181.88 39.1107V34.3532C181.468 34.3532 181.114 34.417 180.817 34.5446C180.526 34.6721 180.284 34.8461 180.092 35.0664C179.9 35.2809 179.757 35.5331 179.664 35.8231C179.576 36.113 179.532 36.4203 179.532 36.745ZM187.566 36.745C187.566 36.4203 187.519 36.113 187.426 35.8231C187.338 35.5331 187.198 35.2809 187.005 35.0664C186.813 34.8461 186.569 34.6721 186.272 34.5446C185.981 34.417 185.629 34.3532 185.217 34.3532V39.1107C185.629 39.1107 185.981 39.0498 186.272 38.9281C186.569 38.8005 186.813 38.6295 187.005 38.4149C187.198 38.2004 187.338 37.9511 187.426 37.6669C187.519 37.3771 187.566 37.0697 187.566 36.745Z" fill="#333333"/>
<path d="M71.0149 21.351C65.3449 21.351 61.2139 17.112 61.2139 11.55C61.2139 5.98802 65.3449 1.74902 71.0149 1.74902C75.6589 1.74902 79.1959 4.66502 80.2219 8.76902H75.3079C74.5519 7.12203 73.0129 6.12302 71.0149 6.12302C67.8829 6.12302 65.8579 8.39102 65.8579 11.55C65.8579 14.709 67.8829 16.977 71.0149 16.977C73.0129 16.977 74.5519 15.978 75.3079 14.331H80.2219C79.1959 18.435 75.6589 21.351 71.0149 21.351Z" fill="#333333"/>
<path d="M99.5045 2.09998V21H94.9145V6.47398H87.6515V21H83.0615V2.09998H99.5045Z" fill="#333333"/>
<path d="M114.463 2.09998H119.674V21H115.084V13.089L115.462 9.09298L108.361 21H103.15V2.09998H107.74V10.011L107.389 14.007L114.463 2.09998Z" fill="#333333"/>
<path d="M132.45 21.351C126.78 21.351 122.649 17.112 122.649 11.55C122.649 5.98802 126.78 1.74902 132.45 1.74902C137.094 1.74902 140.631 4.66502 141.657 8.76902H136.743C135.987 7.12203 134.448 6.12302 132.45 6.12302C129.318 6.12302 127.293 8.39102 127.293 11.55C127.293 14.709 129.318 16.977 132.45 16.977C134.448 16.977 135.987 15.978 136.743 14.331H141.657C140.631 18.435 137.094 21.351 132.45 21.351Z" fill="#333333"/>
<path d="M157.099 21L155.749 17.085H148.675L147.325 21H142.465L149.323 2.09998H155.101L161.959 21H157.099ZM150.187 12.711H154.237L152.212 6.82498L150.187 12.711Z" fill="#333333"/>
<path d="M176.036 2.09998V6.47398H170.879V21H166.289V6.47398H161.159V2.09998H176.036Z" fill="#333333"/>
<path d="M187.379 9.01198C191.456 9.01198 193.832 10.983 193.832 14.979C193.832 18.975 191.294 21 187.298 21H179.117V2.09998H183.707V9.01198H187.379ZM187.109 16.626C188.432 16.626 189.188 16.167 189.188 14.925C189.188 13.683 188.513 13.305 187.19 13.305H183.707V16.626H187.109Z" fill="#333333"/>
<path d="M92.4494 26.749C98.0384 26.749 102.332 30.988 102.332 36.55C102.332 42.112 98.0384 46.351 92.4494 46.351C86.8604 46.351 82.5674 42.112 82.5674 36.55C82.5674 30.988 86.8604 26.749 92.4494 26.749ZM92.4494 31.123C89.4254 31.123 87.2114 33.391 87.2114 36.55C87.2114 39.709 89.4254 41.977 92.4494 41.977C95.4734 41.977 97.6874 39.709 97.6874 36.55C97.6874 33.391 95.4734 31.123 92.4494 31.123Z" fill="#333333"/>
<path d="M137.401 27.1V31.474H129.733V46H125.143V27.1H137.401Z" fill="#333333"/>
<path d="M151.14 27.1H156.351V46H151.761V38.089L152.139 34.093L145.038 46H139.827V27.1H144.417V35.011L144.066 39.007L151.14 27.1Z" fill="#333333"/>
<path d="M80.5456 42.576H83.4616V51H78.2776V46.464H64.5346V51H59.3506V42.576H62.2666L69.1246 27.024H73.6606L80.5456 42.576ZM67.5856 42.576H75.2266L71.3926 33.909L67.5856 42.576Z" fill="#333333"/>
<path d="M114.694 27L123 46H117.854L112.5 33.7292L107.146 46H102L110.306 27H114.694Z" fill="#333333"/>
</g>
<defs>
<clipPath id="clip0_264_868">
<rect width="195" height="54" fill="white"/>
</clipPath>
</defs>
</svg>
