<svg width="195" height="54" viewBox="0 0 193 54" fill="none" xmlns="http://www.w3.org/2000/svg">
    <mask id="path-1-inside-1_262_856" fill="white">
        <rect y="26.8701" width="38" height="38" rx="2" transform="rotate(-45 0 26.8701)"></rect>
    </mask>
    <rect y="26.8701" width="36" height="36" rx="1" transform="rotate(-45 0 26.8701)" stroke="#333333" stroke-width="3"></rect>
    <path d="M7.89941 26.8702L24.87 9.89968" stroke="#333333" stroke-width="2" stroke-linecap="round"></path>
    <path d="M19.2139 21.214L27.6991 12.7287" stroke="#333333" stroke-width="2" stroke-linecap="round"></path>
    <path d="M23.042 42.0128L32.5273 32.5275" stroke="#333333" stroke-width="2" stroke-linecap="round"></path>
    <path d="M25.8701 44.8409L43.8407 26.8704" stroke="#333333" stroke-width="2" stroke-linecap="round"></path>
    <path d="M193 27H160V46H193V27Z" fill="#54B268"></path>
    <path d="M170.135 30.7786C170.668 30.7786 171.141 30.8365 171.553 30.9524C171.965 31.0626 172.325 31.2133 172.632 31.4047C172.945 31.5961 173.209 31.8193 173.423 32.0745C173.637 32.3238 173.81 32.5905 173.942 32.8746C174.074 33.1529 174.17 33.4399 174.231 33.7357C174.291 34.0256 174.321 34.3039 174.321 34.5706C174.321 34.8374 174.291 35.1156 174.231 35.4056C174.17 35.6897 174.074 35.9709 173.942 36.2493C173.81 36.5275 173.637 36.7914 173.423 37.0408C173.209 37.2901 172.945 37.5104 172.632 37.7017C172.325 37.8873 171.965 38.0351 171.553 38.1453C171.141 38.2555 170.668 38.3106 170.135 38.3106H167.878V42.8332H164.434V30.7786H170.135ZM167.878 33.092V35.997H168.619C169.026 35.997 169.366 35.9796 169.641 35.9449C169.921 35.9042 170.146 35.8317 170.317 35.7274C170.493 35.623 170.619 35.481 170.696 35.3012C170.773 35.1156 170.811 34.8779 170.811 34.5881C170.811 34.2981 170.773 34.0574 170.696 33.8662C170.619 33.6748 170.493 33.5211 170.317 33.4052C170.146 33.2892 169.921 33.208 169.641 33.1616C169.361 33.1152 169.015 33.092 168.603 33.092H167.878Z" fill="#ffffff"></path>
    <path d="M184.217 42.9899H180.88V41.5113C179.864 41.4649 179.001 41.3083 178.293 41.0416C177.584 40.7691 177.007 40.4182 176.563 39.9891C176.118 39.5601 175.793 39.0672 175.59 38.5106C175.392 37.9539 175.294 37.3655 175.294 36.745C175.294 36.0782 175.403 35.4636 175.623 34.9012C175.843 34.333 176.181 33.84 176.637 33.4225C177.093 32.9993 177.672 32.6601 178.375 32.405C179.078 32.1499 179.913 31.9991 180.88 31.9527V30.6133H184.217V31.9527C185.184 31.9991 186.019 32.1499 186.722 32.405C187.425 32.6601 188.005 32.9993 188.461 33.4225C188.917 33.84 189.254 34.333 189.474 34.9012C189.694 35.4636 189.804 36.0782 189.804 36.745C189.804 37.3655 189.702 37.9539 189.499 38.5106C189.296 39.0672 188.972 39.5601 188.527 39.9891C188.082 40.4182 187.505 40.7691 186.796 41.0416C186.088 41.3083 185.228 41.4649 184.217 41.5113V42.9899ZM178.532 36.745C178.532 37.0697 178.576 37.3771 178.664 37.6669C178.757 37.9511 178.9 38.2004 179.092 38.4149C179.284 38.6295 179.526 38.8005 179.817 38.9281C180.114 39.0498 180.468 39.1107 180.88 39.1107V34.3532C180.468 34.3532 180.114 34.417 179.817 34.5446C179.526 34.6721 179.284 34.8461 179.092 35.0664C178.9 35.2809 178.757 35.5331 178.664 35.8231C178.576 36.113 178.532 36.4203 178.532 36.745ZM186.566 36.745C186.566 36.4203 186.519 36.113 186.426 35.8231C186.338 35.5331 186.198 35.2809 186.005 35.0664C185.813 34.8461 185.569 34.6721 185.272 34.5446C184.981 34.417 184.629 34.3532 184.217 34.3532V39.1107C184.629 39.1107 184.981 39.0498 185.272 38.9281C185.569 38.8005 185.813 38.6295 186.005 38.4149C186.198 38.2004 186.338 37.9511 186.426 37.6669C186.519 37.3771 186.566 37.0697 186.566 36.745Z" fill="#ffffff"></path>
    <path d="M70.0146 21.351C64.3446 21.351 60.2136 17.112 60.2136 11.55C60.2136 5.98802 64.3446 1.74902 70.0146 1.74902C74.6586 1.74902 78.1956 4.66502 79.2216 8.76902H74.3076C73.5516 7.12203 72.0126 6.12302 70.0146 6.12302C66.8826 6.12302 64.8576 8.39102 64.8576 11.55C64.8576 14.709 66.8826 16.977 70.0146 16.977C72.0126 16.977 73.5516 15.978 74.3076 14.331H79.2216C78.1956 18.435 74.6586 21.351 70.0146 21.351Z" fill="#333333"></path>
    <path d="M98.5044 2.10002V21H93.9144V6.47402H86.6514V21H82.0614V2.10002H98.5044Z" fill="#333333"></path>
    <path d="M113.463 2.10002H118.674V21H114.084V13.089L114.462 9.09302L107.361 21H102.15V2.10002H106.74V10.011L106.389 14.007L113.463 2.10002Z" fill="#333333"></path>
    <path d="M131.45 21.351C125.78 21.351 121.649 17.112 121.649 11.55C121.649 5.98802 125.78 1.74902 131.45 1.74902C136.094 1.74902 139.631 4.66502 140.657 8.76902H135.743C134.987 7.12203 133.448 6.12302 131.45 6.12302C128.318 6.12302 126.293 8.39102 126.293 11.55C126.293 14.709 128.318 16.977 131.45 16.977C133.448 16.977 134.987 15.978 135.743 14.331H140.657C139.631 18.435 136.094 21.351 131.45 21.351Z" fill="#333333"></path>
    <path d="M156.099 21L154.749 17.085H147.675L146.325 21H141.465L148.323 2.10002H154.101L160.959 21H156.099ZM149.187 12.711H153.237L151.212 6.82502L149.187 12.711Z" fill="#333333"></path>
    <path d="M175.036 2.10002V6.47402H169.879V21H165.289V6.47402H160.159V2.10002H175.036Z" fill="#333333"></path>
    <path d="M186.379 9.01202C190.456 9.01202 192.832 10.983 192.832 14.979C192.832 18.975 190.294 21 186.298 21H178.117V2.10002H182.707V9.01202H186.379ZM186.109 16.626C187.432 16.626 188.188 16.167 188.188 14.925C188.188 13.683 187.513 13.305 186.19 13.305H182.707V16.626H186.109Z" fill="#333333"></path>
    <path d="M92.4494 26.749C98.0384 26.749 102.332 30.988 102.332 36.55C102.332 42.112 98.0384 46.351 92.4494 46.351C86.8604 46.351 82.5674 42.112 82.5674 36.55C82.5674 30.988 86.8604 26.749 92.4494 26.749ZM92.4494 31.123C89.4254 31.123 87.2114 33.391 87.2114 36.55C87.2114 39.709 89.4254 41.977 92.4494 41.977C95.4734 41.977 97.6874 39.709 97.6874 36.55C97.6874 33.391 95.4734 31.123 92.4494 31.123Z" fill="#333333"/>
    <path d="M137.401 27.1V31.474H129.733V46H125.143V27.1H137.401Z" fill="#333333"/>
    <path d="M151.14 27.1H156.351V46H151.761V38.089L152.139 34.093L145.038 46H139.827V27.1H144.417V35.011L144.066 39.007L151.14 27.1Z" fill="#333333"/>
    <path d="M80.5456 42.576H83.4616V51H78.2776V46.464H64.5346V51H59.3506V42.576H62.2666L69.1246 27.024H73.6606L80.5456 42.576ZM67.5856 42.576H75.2266L71.3926 33.909L67.5856 42.576Z" fill="#333333"/>
    <path d="M114.694 27L123 46H117.854L112.5 33.7292L107.146 46H102L110.306 27H114.694Z" fill="#333333"/>
</svg>